<?xml version="1.0" encoding="utf-8"?>
<!-- Generator: Adobe Illustrator 24.0.1, SVG Export Plug-In . SVG Version: 6.00 Build 0)  -->
<svg version="1.1" id="Camada_1" xmlns="http://www.w3.org/2000/svg" xmlns:xlink="http://www.w3.org/1999/xlink" x="0px" y="0px"
	 viewBox="0 0 76.5 177" style="enable-background:new 0 0 76.5 177;" xml:space="preserve">
<style type="text/css">
	.st0{opacity:0.8;fill:#EE952C;enable-background:new    ;}
</style>
<title>bebidas</title>
<path class="st0" d="M45,177l-10.1-0.1L24.9,177c-1.9,0-3.9,0-5.7-0.1C9.3,176.5,4,170.6,4,159.8c-0.1-26-0.2-52.1,0-78.1
	C4.1,67,10.2,56.1,21.6,50.1c1.9-1,2.2-1.6,2.1-4.2c-0.2-6.6-0.2-13.2-0.1-19.9v-8.3c-0.1-2,1.5-3.6,3.4-3.7l0,0h16
	c1.9,0.1,3.4,1.7,3.4,3.7V26c0,6.7,0.1,13.3-0.1,19.9c-0.1,2.6,0.2,3.2,2.1,4.2C59.8,56.1,65.9,67,66,81.6c0.2,26,0.2,52,0,78.1
	c-0.1,11-5.3,16.9-15.2,17.1C48.8,177,46.8,177,45,177z"/>
<path d="M52.9,21.4H31.3c-2,0-3.7-1.7-3.7-3.7v-14c0-2,1.7-3.7,3.7-3.7H53c2,0,3.7,1.7,3.7,3.7v14C56.7,19.8,55,21.4,52.9,21.4
	C53,21.4,53,21.4,52.9,21.4z M35,14h14.2V7.4H35V14z"/>
<path d="M53.2,177l-11.1-0.1L31,177c-2.1,0-4.2,0-6.3-0.1c-10.9-0.3-16.7-6.2-16.8-17.1c-0.1-26-0.1-52.1,0-78.1
	C8,67.1,14.8,56.2,27.4,50.1c2.1-1,2.4-1.6,2.4-4.2c-0.2-6.6-0.2-13.2-0.1-19.9v-8.3c0-2,1.7-3.7,3.7-3.7H51c2,0,3.7,1.6,3.8,3.7
	c0,0,0,0,0,0.1V26c0,6.7,0.1,13.3-0.1,19.9c-0.1,2.6,0.3,3.2,2.4,4.2c12.6,6,19.3,16.9,19.5,31.5c0.2,26,0.2,52,0,78.1
	c-0.1,11-5.9,16.9-16.8,17.1C57.5,177,55.4,177,53.2,177z M42.1,169.5l11.1,0.1c2,0,4.1,0,6.2-0.1c6.8-0.1,9.5-2.9,9.5-9.8
	c0.1-26,0.1-52,0-78c0-11.7-5.2-20.1-15.2-24.9c-6-2.9-6.7-7.2-6.6-11.1c0.2-6.5,0.2-13,0.1-19.7v-4.6H37.1V26
	c0,6.6-0.1,13.1,0.1,19.7c0.1,3.9-0.6,8.3-6.6,11.1c-10,4.8-15.2,13.2-15.3,24.9c-0.2,26-0.2,52,0,78c0,6.9,2.7,9.6,9.5,9.8
	c2,0.1,4.1,0.1,6.2,0.1L42.1,169.5z"/>
</svg>
