<svg id="Camada_1" data-name="Camada 1" xmlns="http://www.w3.org/2000/svg" viewBox="0 0 78.3 68.27"><defs><style>.cls-1{opacity:0.8;isolation:isolate;}.cls-2{fill:#ee952c;}.cls-2,.cls-3{fill-rule:evenodd;}</style></defs><title>carnes</title><g class="cls-1"><path class="cls-2" d="M33.24,85.19c7.11,6.17,13.08,6.07,24.75,2.27,6.66-2.17,9.21-2.72,12.29-2.26a12.88,12.88,0,0,1,8.12,4.34l1.19,1.22C83.17,94.4,86.05,95.7,91.46,95c13-1.72,13-21.25,1.08-34.07S57.21,41.15,42.29,47.07c-15.75,6.24-21.06,27.06-9.62,37.61Z" transform="translate(-23.04 -44.91)"/></g><path class="cls-3" d="M30,90.38c7.41,6.66,13.63,6.55,25.79,2.45,7-2.34,9.6-2.94,12.81-2.44,3.67.58,5.79,1.89,8.46,4.68l1.25,1.32c3.72,3.93,6.72,5.34,12.36,4.56C104.26,99.1,104.22,78,91.83,64.19S55,42.85,39.46,49.24c-16.41,6.73-21.94,29.2-10,40.58ZM40.87,52.67c14-5.75,36.68,1.13,48.2,14C99.81,78.66,99.85,96,90.2,97.28c-4.3.58-6.2-.3-9.17-3.44L79.77,92.5c-3.18-3.32-6-5.06-10.57-5.77-4-.63-7,0-14.56,2.59-11,3.71-16,3.79-22.13-1.7L32,87.14C22.11,77.69,26.85,58.42,40.87,52.67Z" transform="translate(-23.04 -44.91)"/><path class="cls-3" d="M56.34,72.92c0-9.36-9.12-17.53-16.63-12.69S32.06,71.33,39,74.6c1.73.81,1.84,1.06,1.76,2.77-.11,2.46.23,3.89,1.89,5.6C47.65,88.08,56.34,81.45,56.34,72.92ZM44.5,77.54c.14-3.08-.63-4.77-3.89-6.3-4.1-1.92-4-4.62,1.11-7.89,4.56-2.94,10.91,2.75,10.91,9.57,0,5.7-5.17,9.64-7.29,7.46C44.55,79.57,44.43,79.07,44.5,77.54Z" transform="translate(-23.04 -44.91)"/><path class="cls-3" d="M23.06,85.56a21.45,21.45,0,0,0,6.38,16.29c.2.19.39.38.59.55,7.41,6.67,13.63,6.56,25.79,2.46,7-2.34,9.6-2.94,12.81-2.44,3.67.57,5.79,1.89,8.46,4.68l1.25,1.32c3.72,3.93,6.72,5.33,12.36,4.56,6.38-.87,10.07-6.25,10.28-13.73,0-1.11,0-12.41,0-13l-3.71,0c0,.55,0,11.76,0,12.83-.16,5.82-2.73,9.56-7.07,10.15S84,109,81,105.87l-1.26-1.34c-3.18-3.33-6-5.06-10.57-5.78-4-.62-7,0-14.56,2.59-11,3.72-16,3.8-22.13-1.7L32,99.17a17.81,17.81,0,0,1-5.23-13.52c0-.92,0-10.61,0-11l-3.71.07C23.06,75.1,23.08,84.67,23.06,85.56Z" transform="translate(-23.04 -44.91)"/></svg>