<svg id="Camada_1" data-name="Camada 1" xmlns="http://www.w3.org/2000/svg" viewBox="0 0 77.63 83.84"><defs><style>.cls-1{fill:#ee952c;opacity:0.8;}</style></defs><title>congelados</title><path class="cls-1" d="M29.72,57.44l4.58,56s17.32,7,34,5.28S94.84,114,94.84,114l3.44-55.83S41.51,64.56,29.72,57.44Z" transform="translate(-29.72 -35.19)"/><path d="M102.88,57.93a1.31,1.31,0,0,0-1.39,1.2l-4,54.72c-2,.92-12.16,2.09-27.72,2.09S44,114.77,42,113.85L38,59.13a1.31,1.31,0,1,0-2.61.19l4,55.17h0c.08,1.5,1.69,2.42,9.66,3.21,5.52.54,12.84.84,20.63.84s15.1-.3,20.62-.84c8-.79,9.59-1.71,9.66-3.21h0l4-55.16a1.3,1.3,0,0,0-1.2-1.4Z" transform="translate(-29.72 -35.19)"/><path d="M107.33,40.06h0c0-1.4-.91-2.75-11.81-3.82-6.89-.68-16-1.05-25.78-1.05S50.85,35.56,44,36.24c-10.9,1.07-11.8,2.42-11.8,3.82h0l0,13.69c0,1.59,1.51,2.63,9.49,3.58h.16A1.31,1.31,0,0,0,42,54.74a26.38,26.38,0,0,1-7.19-1.43l0-10.93A50.18,50.18,0,0,0,44,43.89c6.89.68,16,1,25.78,1s18.9-.37,25.79-1a49.58,49.58,0,0,0,9.21-1.51V53.32c-2.22,1.18-15,2.71-35,2.71-8.28,0-16.36-.29-22.75-.8a1.31,1.31,0,0,0-.21,2.61c6.46.52,14.61.8,23,.8,9.73,0,18.89-.38,25.78-1,10.9-1.08,11.81-2.43,11.81-3.83ZM69.74,42.34c-17.56,0-29.58-1.19-33.73-2.28,4.15-1.08,16.17-2.27,33.73-2.27S99.32,39,103.47,40.06C99.32,41.15,87.29,42.34,69.74,42.34Z" transform="translate(-29.72 -35.19)"/></svg>