<svg id="Camada_1" data-name="Camada 1" xmlns="http://www.w3.org/2000/svg" viewBox="0 0 81.56 91.89"><defs><style>.cls-1{fill:#ee952c;opacity:0.8;isolation:isolate;}.cls-1,.cls-2{fill-rule:evenodd;}</style></defs><title>doces</title><path class="cls-1" d="M26.46,74.79v46l78.9-25.09V52.41S92.61,41.31,77.7,39.2Z" transform="translate(-23.8 -28.91)"/><path class="cls-2" d="M25.72,74.85a1.9,1.9,0,0,1,1.91,1.91V115a1.92,1.92,0,1,1-3.83,0V76.76A1.91,1.91,0,0,1,25.72,74.85Z" transform="translate(-23.8 -28.91)"/><path class="cls-2" d="M102.28,51.88a1.91,1.91,0,0,1,1.92,1.91V92.07a1.92,1.92,0,1,1-3.83,0V53.79A1.9,1.9,0,0,1,102.28,51.88Z" transform="translate(-23.8 -28.91)"/><path class="cls-2" d="M23.88,77.31a1.92,1.92,0,0,1,1.29-2.38l76.56-23a1.92,1.92,0,1,1,1.1,3.67l-76.56,23A1.92,1.92,0,0,1,23.88,77.31Z" transform="translate(-23.8 -28.91)"/><path class="cls-2" d="M23.88,96.45a1.92,1.92,0,0,1,1.29-2.38l76.56-23a1.92,1.92,0,1,1,1.1,3.67l-76.56,23A1.93,1.93,0,0,1,23.88,96.45Z" transform="translate(-23.8 -28.91)"/><path class="cls-2" d="M23.88,115.59a1.92,1.92,0,0,1,1.29-2.38l76.56-23a1.92,1.92,0,1,1,1.1,3.67l-76.56,23A1.93,1.93,0,0,1,23.88,115.59Z" transform="translate(-23.8 -28.91)"/><path class="cls-2" d="M51,48.8,24.36,75.41a1.91,1.91,0,0,0,2.71,2.7l25.8-25.79A9.6,9.6,0,0,1,51,48.8ZM62.85,37a1.9,1.9,0,0,1,2.5.18,1.87,1.87,0,0,1,.56,1.35A9.36,9.36,0,0,0,62.85,37Z" transform="translate(-23.8 -28.91)"/><path class="cls-2" d="M67.78,40.32a50.73,50.73,0,0,1,12.58,1.75,34.23,34.23,0,0,1,4.42,1.56A47.16,47.16,0,0,1,92.5,48a58.68,58.68,0,0,1,6.13,4.89c1.09,1,1.86,1.76,2.25,2.18a1.91,1.91,0,1,0,2.81-2.6c-.46-.49-1.3-1.34-2.48-2.41a64.57,64.57,0,0,0-6.53-5.21,50.94,50.94,0,0,0-8.35-4.74,38.31,38.31,0,0,0-4.94-1.75,55.53,55.53,0,0,0-16.77-1.85l-.76,0a1.89,1.89,0,0,0-1,.38A9.53,9.53,0,0,1,67.78,40.32Z" transform="translate(-23.8 -28.91)"/><path class="cls-2" d="M60.17,59.53a13.4,13.4,0,1,0-13.4-13.39A13.39,13.39,0,0,0,60.17,59.53Zm0-3.82a9.58,9.58,0,1,0-9.57-9.57A9.57,9.57,0,0,0,60.17,55.71Z" transform="translate(-23.8 -28.91)"/><path class="cls-2" d="M73.65,38a21.73,21.73,0,0,0,3.66-6.6,1.91,1.91,0,0,0-3.65-1.16A12.15,12.15,0,0,1,73,31.87a19.62,19.62,0,0,1-2.33,3.74,13.37,13.37,0,0,1-7.13,4.84,1.92,1.92,0,0,0,1,3.71A17.22,17.22,0,0,0,73.65,38Z" transform="translate(-23.8 -28.91)"/></svg>