<svg id="Camada_1" data-name="Camada 1" xmlns="http://www.w3.org/2000/svg" viewBox="0 0 34.52 43.57"><defs><style>.cls-1{fill:#7cc251;}</style></defs><title>fav-icon</title><polygon class="cls-1" points="0.63 21.11 2.57 41.43 5.61 43.07 27.67 43.07 30.45 40.7 30.79 37.74 32.4 21.11 0.63 21.11"/><path d="M28.53,33.13a.73.73,0,0,0,.25,0,.75.75,0,0,0,.72-.53,1.35,1.35,0,0,1,1.71-.84A2.89,2.89,0,0,0,34.87,30a.75.75,0,0,0-.47-1,.76.76,0,0,0-1,.48,1.34,1.34,0,0,1-1.71.84,2.89,2.89,0,0,0-3.65,1.8A.77.77,0,0,0,28.53,33.13Z" transform="translate(-5.24 -13.72)"/><path d="M30.35,27.78a.67.67,0,0,0,.24,0,.76.76,0,0,0,.73-.52,1.33,1.33,0,0,1,.68-.77,1.28,1.28,0,0,1,1-.07,2.9,2.9,0,0,0,3.66-1.81.77.77,0,0,0-1.46-.49,1.35,1.35,0,0,1-1.71.85,2.87,2.87,0,0,0-3.65,1.8A.76.76,0,0,0,30.35,27.78Z" transform="translate(-5.24 -13.72)"/><path d="M32.16,22.44a.71.71,0,0,0,.24,0,.76.76,0,0,0,.73-.53,1,1,0,0,1,1.27-.62,2.54,2.54,0,0,0,1.93-.12,2.45,2.45,0,0,0,1.27-1.46.76.76,0,0,0-.47-1,.77.77,0,0,0-1,.48,1,1,0,0,1-1.26.62,2.54,2.54,0,0,0-3.21,1.58A.77.77,0,0,0,32.16,22.44Z" transform="translate(-5.24 -13.72)"/><path d="M37.27,32.91a54.21,54.21,0,0,0,2.49-14.43,5.54,5.54,0,0,0-1.44-3.75,3.18,3.18,0,0,0-3.94-.58c-2.29,1.19-3.93,4.66-5.25,7.46-.08.16-1.86,2.61-2.14,3a8.27,8.27,0,0,0-1.53-1l-.36-.19a.16.16,0,0,1-.08-.13.4.4,0,0,1,.11-.34,1.69,1.69,0,0,0,.36-1.42l-.1-.42a1.65,1.65,0,0,0-1.94-1.25l-.22.05h0L21,20.43l-2.19.48a1.63,1.63,0,0,0-1.25,1.95l0,.21.05.2a1.61,1.61,0,0,0,.95,1.15.47.47,0,0,1,.25.25s0,.08,0,.16l-.23.31-.26.34-.09.11-.2.28a1.21,1.21,0,0,1-.1.14c-.06.09-.11.19-.17.29l-.09.16a3.36,3.36,0,0,0-.16.33.94.94,0,0,0-.06.15,4.12,4.12,0,0,0-.18.53.19.19,0,0,1,0,.08,3.86,3.86,0,0,0-.09.49,1.48,1.48,0,0,1,0,.21,2.45,2.45,0,0,0,0,.27L17,28.43l-.15-.19c-.11-.14-.23-.27-.34-.4l-.17-.17L16,27.33l-.14-.12a5.6,5.6,0,0,0-.49-.36l-.16-.08a2.42,2.42,0,0,0-.36-.18l-.2-.07-.33-.1-.2-.05a2.72,2.72,0,0,0-.42,0h-.1c-.79,0-3.72,1-3.55,1.4A4,4,0,0,0,7,26.26a.77.77,0,0,0,0,1.53h.08a2.65,2.65,0,0,1,1.87,1A5.18,5.18,0,0,0,5.63,31a3.89,3.89,0,0,0-.2,2.81,1.4,1.4,0,0,0-.19.77L6.55,53.14a4.38,4.38,0,0,0,4.37,4.15H32.44a4.37,4.37,0,0,0,4.37-4.13L38.15,34a1,1,0,0,0-.28-.75A1,1,0,0,0,37.27,32.91ZM19.33,22.36l4.3-.93a.33.33,0,0,1,.32.25.32.32,0,0,1-.05.24.33.33,0,0,1-.2.13L19.46,23a.31.31,0,0,1-.38-.24A.33.33,0,0,1,19.33,22.36Zm.43,3.74.26-.34c.06-.09.11-.16.16-.25a1.67,1.67,0,0,0,.15-1.14l3.19-.7c0,.1.05.19.09.29a1.73,1.73,0,0,0,.76.85l.36.19.31.17.16.08.26.16.23.15.24.19.21.18a2.29,2.29,0,0,1,.21.23,3.17,3.17,0,0,1,.33.46c-.33.72-.63,1.45-.93,2.18-.05.12-.09.23-.14.34A7.55,7.55,0,0,0,23,30.47a4.57,4.57,0,0,1-3.76.91l-.47-2.13A3.47,3.47,0,0,1,19.76,26.1Zm5.14,5-.21.6-.15.42c-.23.69-.44,1.38-.65,2.07l-.5-.31a4,4,0,0,0-2-.57,3.53,3.53,0,0,0-.56,0l-.13,0-.25,0a3.36,3.36,0,0,0-.74.24L19.54,33c.22,0,.43,0,.64,0a5.93,5.93,0,0,0,3.65-1.28A8.46,8.46,0,0,1,24.9,31.06ZM7,31.73a3.81,3.81,0,0,1,2.48-1.47,4.17,4.17,0,0,0,1.72-1,7.38,7.38,0,0,1,.61-.55l.51-.37h0a3.26,3.26,0,0,1,.9-.42h0a1.9,1.9,0,0,1,.4-.05c1,0,2,1,3.07,2.86a5.73,5.73,0,0,1,.51,3.74l-.17,0a2.45,2.45,0,0,1-.78-.29l-.55-.33a4,4,0,0,0-2-.56,3.64,3.64,0,0,0-.57,0,4.05,4.05,0,0,0-1.51.52l-.27.16a3,3,0,0,1-1.5.42A2.87,2.87,0,0,1,8.32,34l-1-.62a1.19,1.19,0,0,0-.43-.16A2.34,2.34,0,0,1,7,31.73Zm28.3,21.34a2.83,2.83,0,0,1-2.83,2.69H10.92a2.84,2.84,0,0,1-2.83-2.71L6.81,34.92l.67.4a4.68,4.68,0,0,0,4.69,0l.27-.16a2.53,2.53,0,0,1,1.23-.34,2.56,2.56,0,0,1,1.23.34l.54.33A4,4,0,0,0,17,36a4.91,4.91,0,0,0,.55,0l.37,0L18,36a4,4,0,0,0,1.45-.47l.13,0,.55-.33a2.53,2.53,0,0,1,1.23-.34,2.49,2.49,0,0,1,1.22.34l.55.33A4.14,4.14,0,0,0,24.8,36h.3l.46,0c.2,0,.39-.06.59-.1l.1,0a3.67,3.67,0,0,0,1-.4l.54-.33A2.53,2.53,0,0,1,29,34.83a2.56,2.56,0,0,1,1.23.34l.54.33a4.09,4.09,0,0,0,4.08,0l1.5-.67.09-.06.11,0Zm.49-20.45-.31.93-1.31.58-.08,0a2.53,2.53,0,0,1-1.23.34,2.56,2.56,0,0,1-1.23-.34l-.54-.33a4,4,0,0,0-2-.57,3.9,3.9,0,0,0-.58,0,3.94,3.94,0,0,0-1.51.52l-.54.33a2.61,2.61,0,0,1-1,.31c0-.07,0-.12,0-.17.22-.72.45-1.45.68-2.15l.27-.78c.2-.56.41-1.11.63-1.67l.28-.7a44.56,44.56,0,0,1,2.21-4.74c.3-.57.63-1.27,1-2,1.16-2.44,2.73-5.8,4.57-6.74a1.65,1.65,0,0,1,2.14.28,4,4,0,0,1,1,2.64A52.13,52.13,0,0,1,35.77,32.62Z" transform="translate(-5.24 -13.72)"/><path d="M9.85,46.69h5.37a.77.77,0,1,0,0-1.53H9.85a.77.77,0,1,0,0,1.53Z" transform="translate(-5.24 -13.72)"/><path d="M9.85,49.76h6.9a.77.77,0,1,0,0-1.53H9.85a.77.77,0,1,0,0,1.53Z" transform="translate(-5.24 -13.72)"/><path d="M18.29,51.29H9.85a.77.77,0,0,0,0,1.54h8.44a.77.77,0,0,0,0-1.54Z" transform="translate(-5.24 -13.72)"/><path d="M22.89,51.29H21.35a.77.77,0,0,0,0,1.54h1.54a.77.77,0,0,0,0-1.54Z" transform="translate(-5.24 -13.72)"/></svg>