<svg id="Camada_1" data-name="Camada 1" xmlns="http://www.w3.org/2000/svg" viewBox="0 0 81.73 125.1"><defs><style>.cls-1{fill:#ee952c;opacity:0.8;}</style></defs><title>fruta</title><path class="cls-1" d="M84,65.94a32.83,32.83,0,0,1-8-21.3V44A19.84,19.84,0,0,0,60.78,24.52a4.82,4.82,0,0,1-2.4.6,4.66,4.66,0,0,1-2.78-.84,3.44,3.44,0,0,1-.78-.08,4,4,0,0,1-1-.2.59.59,0,0,1,0,.13,19.67,19.67,0,0,0-16.9,19.34v1.17A33.17,33.17,0,0,1,28.67,66a36.28,36.28,0,0,0-8.89,24.71A36.87,36.87,0,0,0,56.41,126.6h.39A36.69,36.69,0,0,0,93,90,36.18,36.18,0,0,0,84,65.94Z" transform="translate(-19.77 -1.5)"/><path d="M83.7,1.5A22.63,22.63,0,0,0,61.3,21.7,20.13,20.13,0,0,0,44,41.5v1.2a33.91,33.91,0,0,1-8.4,21.9,37.19,37.19,0,0,0-9.1,25.3A37.75,37.75,0,0,0,64,126.6h.4a37.56,37.56,0,0,0,37.1-37.5,37.08,37.08,0,0,0-9.3-24.6A33.57,33.57,0,0,1,84,42.7V42A20.27,20.27,0,0,0,66.3,21.7,17.58,17.58,0,0,1,83.7,6.5,2.48,2.48,0,0,0,86.2,4,2.54,2.54,0,0,0,83.7,1.5Zm-20,25H64c8.1,0,15,7.1,15,15.5v.7a38.18,38.18,0,0,0,9.5,25,32.21,32.21,0,0,1,8,21.3,32.63,32.63,0,0,1-32.2,32.5H64A32.75,32.75,0,0,1,31.5,89.7a32.14,32.14,0,0,1,7.9-21.9A38.61,38.61,0,0,0,49,42.7V41.5A15.12,15.12,0,0,1,63.7,26.5ZM56.5,39A2.48,2.48,0,0,0,54,41.5v1.2A44.11,44.11,0,0,1,43.2,71.1a27.73,27.73,0,0,0-6.7,18.5A2.39,2.39,0,0,0,39,92h.1a2.42,2.42,0,0,0,2.4-2.6,22.41,22.41,0,0,1,5.4-15.1A48.65,48.65,0,0,0,59,42.6V41.4A2.46,2.46,0,0,0,56.5,39Z" transform="translate(-19.77 -1.5)"/></svg>