<?xml version="1.0" encoding="utf-8"?>
<!-- Generator: Adobe Illustrator 24.0.1, SVG Export Plug-In . SVG Version: 6.00 Build 0)  -->
<svg version="1.1" id="Camada_1" xmlns="http://www.w3.org/2000/svg" xmlns:xlink="http://www.w3.org/1999/xlink" x="0px" y="0px"
	 viewBox="0 0 151.4 149.9" style="enable-background:new 0 0 151.4 149.9;" xml:space="preserve">
<style type="text/css">
	.st0{opacity:0.8;fill:#EE952C;enable-background:new    ;}
</style>
<title>graos</title>
<path class="st0" d="M100.6,58.6C94.9,42,76.8,33.1,60.2,38.8c-1.9,0.7-3.7,1.5-5.5,2.5c-2,1.3-3.9,2.7-5.8,4.2l0,0
	c-5.8,5.3-9.4,12.7-10.1,20.5c-0.5,5.3-4.7,9.5-10,10c-8.4,0.7-16.1,4.8-21.5,11.2c-11.3,13.5-9.6,33.6,3.8,44.9
	c2.7,2.3,5.8,4.1,9.2,5.4c4.5,2,9.4,2.9,14.4,2.8c12.2,0,28.9-4.9,46.1-22.2C111.3,87.9,102.1,62,100.6,58.6z"/>
<path d="M144,50.2c-5.4-6.4-13.1-10.5-21.5-11.2c-5.3-0.5-9.5-4.7-10-10C110.9,11.4,95.5-1.5,78,0.1c-12.1,1.1-22.6,9-26.9,20.4
	c-2.9,6-4.7,17.8,0.4,32.1c0.3,0.8,0.6,1.6,1,2.5l0,0c-5.8,5.3-9.4,12.7-10.1,20.5c-0.5,5.3-4.7,9.5-10,10
	c-8.3,0.7-16.1,4.8-21.5,11.2c-11.3,13.5-9.6,33.6,3.8,44.9c2.7,2.3,5.8,4.1,9.2,5.4c4.5,2,9.4,3,14.4,2.9c12.1,0,28.9-5,46.1-22.2
	c30.3-30.4,21.1-56.3,19.7-59.7c-5.7-16.6-23.8-25.5-40.4-19.8c-1.9,0.7-3.8,1.5-5.5,2.5c-0.3-0.8-0.6-1.6-0.8-2.4
	c-4.5-14.2-0.4-23.9,0-24.9c0.1-0.1,0.1-0.3,0.2-0.4c4.7-12.8,19-19.4,31.8-14.7c9,3.3,15.3,11.5,16.1,21.1
	c0.7,8.7,7.6,15.7,16.4,16.4c13.7,1.3,23.7,13.4,22.5,27c-0.9,9.8-7.4,18.1-16.7,21.2l-0.3,0.1c-0.6,0.2-8.3,3.4-20.1,0.9
	c-0.6,2.3-1.3,4.6-2.2,6.8c3.6,0.8,7.3,1.3,11,1.3c4.8,0.1,9.5-0.7,14-2.4c16.6-5.8,25.5-23.9,19.7-40.5
	C148.5,56.6,146.5,53.2,144,50.2L144,50.2z M90.2,59.6c3.3,2.9,5.8,6.6,7.3,10.8c0,0.1,0.1,0.2,0.1,0.3c0.4,1,9.8,24.1-18.2,52.2
	c-28.2,28.2-51,18.6-52.5,18c-0.1-0.1-0.3-0.1-0.4-0.2c-12.9-4.8-19.4-19.1-14.6-32c1-2.7,2.4-5.1,4.3-7.3c4.2-5,10.2-8.2,16.7-8.7
	c8.7-0.8,15.6-7.7,16.4-16.4c1.2-13.6,13.2-23.7,26.9-22.5C81.4,54.2,86.3,56.2,90.2,59.6z"/>
<path d="M123,59.3c1.9,0,3.5-1.6,3.5-3.5c0-1.4-0.9-2.7-2.2-3.3c-2.9-1.2-6-2-9.1-2.5c-3.5-0.6-6.7-2.2-9.2-4.7l0,0
	c-2.5-2.5-4.2-5.7-4.7-9.2c-0.5-3.1-1.3-6.2-2.4-9.1c-0.7-1.8-2.7-2.7-4.5-2c-1.8,0.7-2.7,2.7-2,4.5c1,2.4,1.6,4.9,2,7.5
	c0.8,5,3.1,9.5,6.7,13.1l0,0c3.5,3.6,8.1,5.9,13.1,6.7c2.6,0.4,5.1,1,7.5,2C122,59.2,122.5,59.3,123,59.3z"/>
<path d="M60.5,71.9c-1.8-0.7-3.8,0.2-4.5,2c0,0,0,0,0,0c-1.2,2.9-2,6-2.5,9.1c-0.6,3.5-2.2,6.7-4.7,9.2l0,0
	c-2.5,2.5-5.7,4.1-9.1,4.7c-3.1,0.5-6.2,1.3-9.1,2.5c-1.8,0.7-2.7,2.8-2,4.6c0.7,1.8,2.8,2.7,4.5,1.9l0,0c2.4-1,4.9-1.6,7.5-2
	c5-0.8,9.6-3.1,13.1-6.7h0c3.5-3.6,5.8-8.2,6.6-13.1c0.4-2.6,1-5.1,2-7.5C63.2,74.6,62.3,72.6,60.5,71.9z"/>
</svg>
